<svg width="160" height="38" viewBox="0 0 160 38" fill="none" xmlns="http://www.w3.org/2000/svg">
<path d="M152.25 0.349976H6.96001C3.1161 0.349976 0 3.4661 0 7.31V30.52C0 34.3639 3.1161 37.48 6.96001 37.48H152.25C156.094 37.48 159.21 34.3639 159.21 30.52V7.31C159.21 3.4661 156.094 0.349976 152.25 0.349976Z" fill="black"/>
<path d="M27.24 12.84H32.98C34.89 12.84 36.1 14.16 36.1 15.77C36.1 17.02 35.59 17.96 34.42 18.43V18.46C35.57 18.76 35.9 19.87 35.97 20.94C36.01 21.61 36 22.86 36.42 23.45H34.08C33.8 22.78 33.83 21.75 33.71 20.91C33.55 19.79 33.11 19.3 31.94 19.3H29.6V23.45H27.26V12.83L27.24 12.84ZM29.58 17.64H32.14C33.18 17.64 33.75 17.19 33.75 16.12C33.75 15.05 33.18 14.65 32.14 14.65H29.58V17.64Z" fill="white"/>
<path d="M39.33 20.13C39.39 21.47 40.05 22.08 41.22 22.08C42.07 22.08 42.76 21.56 42.89 21.08H44.75C44.15 22.89 42.89 23.67 41.14 23.67C38.71 23.67 37.2 22 37.2 19.62C37.2 17.24 38.8 15.56 41.14 15.56C43.76 15.56 45.03 17.76 44.88 20.13H39.32H39.33ZM42.77 18.79C42.58 17.72 42.11 17.15 41.09 17.15C39.75 17.15 39.36 18.19 39.33 18.79H42.77Z" fill="white"/>
<path d="M53.37 22.97C53.37 24.23 52.92 26.38 49.37 26.38C47.85 26.38 46.08 25.67 45.97 23.91H48.07C48.26 24.7 48.9 24.97 49.65 24.97C50.83 24.97 51.36 24.17 51.35 23.07V22.06H51.32C50.86 22.86 49.93 23.25 49.01 23.25C46.7 23.25 45.72 21.5 45.72 19.38C45.72 17.39 46.87 15.57 49.03 15.57C50.04 15.57 50.82 15.91 51.33 16.8H51.36V15.77H53.37V22.97ZM51.36 19.52C51.36 18.27 50.93 17.15 49.56 17.15C48.37 17.15 47.85 18.19 47.85 19.34C47.85 20.49 48.27 21.65 49.56 21.65C50.77 21.65 51.36 20.62 51.36 19.52Z" fill="white"/>
<path d="M56.35 14.82H54.87L56.3 12.71H58.64L56.34 14.82H56.35ZM54.93 15.77H57.05V23.46H54.93V15.77Z" fill="white"/>
<path d="M60.17 20.97C60.19 21.89 60.96 22.26 61.79 22.26C62.4 22.26 63.18 22.02 63.18 21.28C63.18 20.64 62.3 20.42 60.78 20.09C59.56 19.82 58.34 19.39 58.34 18.04C58.34 16.08 60.04 15.57 61.69 15.57C63.34 15.57 64.93 16.13 65.09 18.02H63.08C63.02 17.2 62.39 16.98 61.63 16.98C61.15 16.98 60.45 17.07 60.45 17.69C60.45 18.45 61.64 18.55 62.85 18.84C64.09 19.12 65.29 19.57 65.29 21C65.29 23.02 63.53 23.68 61.77 23.68C60.01 23.68 58.24 23.01 58.15 20.97H60.16H60.17Z" fill="white"/>
<path d="M69.03 15.77H70.58V17.18H69.03V20.99C69.03 21.7 69.21 21.88 69.92 21.88C70.14 21.88 70.35 21.87 70.58 21.82V23.47C70.22 23.53 69.76 23.54 69.34 23.54C68.04 23.54 66.91 23.24 66.91 21.71V17.17H65.63V15.76H66.91V13.45H69.03V15.76V15.77Z" fill="white"/>
<path d="M71.4 15.77H73.41V17.2H73.44C73.83 16.23 74.87 15.56 75.9 15.56C76.05 15.56 76.23 15.59 76.36 15.63V17.59C76.17 17.55 75.85 17.51 75.6 17.51C74.05 17.51 73.51 18.63 73.51 19.98V23.45H71.39V15.76L71.4 15.77Z" fill="white"/>
<path d="M76.92 18.14C77.04 16.16 78.81 15.57 80.54 15.57C82.08 15.57 83.92 15.91 83.92 17.76V21.76C83.92 22.46 83.99 23.16 84.19 23.47H82.04C81.97 23.23 81.91 22.98 81.89 22.73C81.22 23.43 80.24 23.68 79.3 23.68C77.84 23.68 76.68 22.95 76.68 21.37C76.68 19.63 77.99 19.21 79.3 19.03C80.6 18.84 81.8 18.88 81.8 18.02C81.8 17.11 81.17 16.98 80.43 16.98C79.62 16.98 79.1 17.31 79.03 18.14H76.91H76.92ZM81.81 19.7C81.45 20.01 80.71 20.03 80.05 20.15C79.39 20.28 78.8 20.51 78.8 21.28C78.8 22.05 79.41 22.26 80.1 22.26C81.75 22.26 81.81 20.95 81.81 20.49V19.7Z" fill="white"/>
<path d="M88.06 15.77H89.61V17.18H88.06V20.99C88.06 21.7 88.24 21.88 88.95 21.88C89.17 21.88 89.38 21.87 89.61 21.82V23.47C89.25 23.53 88.79 23.54 88.37 23.54C87.07 23.54 85.94 23.24 85.94 21.71V17.17H84.66V15.76H85.94V13.45H88.06V15.76V15.77Z" fill="white"/>
<path d="M92.18 20.13C92.24 21.47 92.9 22.08 94.07 22.08C94.92 22.08 95.61 21.56 95.74 21.08H97.6C97 22.89 95.74 23.67 93.99 23.67C91.56 23.67 90.05 22 90.05 19.62C90.05 17.24 91.64 15.56 93.99 15.56C96.61 15.56 97.88 17.76 97.73 20.13H92.17H92.18ZM95.62 18.79C95.43 17.72 94.96 17.15 93.94 17.15C92.6 17.15 92.21 18.19 92.18 18.79H95.62Z" fill="white"/>
<path d="M102.66 18.14C102.78 16.16 104.55 15.57 106.28 15.57C107.82 15.57 109.66 15.91 109.66 17.76V21.76C109.66 22.46 109.73 23.16 109.93 23.47H107.78C107.71 23.23 107.65 22.98 107.63 22.73C106.96 23.43 105.98 23.68 105.04 23.68C103.58 23.68 102.42 22.95 102.42 21.37C102.42 19.63 103.73 19.21 105.04 19.03C106.34 18.84 107.54 18.88 107.54 18.02C107.54 17.11 106.91 16.98 106.17 16.98C105.37 16.98 104.84 17.31 104.77 18.14H102.65H102.66ZM107.55 19.7C107.19 20.01 106.45 20.03 105.79 20.15C105.13 20.28 104.54 20.51 104.54 21.28C104.54 22.05 105.15 22.26 105.84 22.26C107.5 22.26 107.55 20.95 107.55 20.49V19.7Z" fill="white"/>
<path d="M118.63 26.17H116.51V22.5H116.48C115.99 23.33 114.97 23.67 114.05 23.67C112.63 23.67 110.79 22.64 110.79 19.67C110.79 17.56 111.91 15.56 114.25 15.56C115.2 15.56 116.11 15.9 116.59 16.75H116.62V15.77H118.63V26.17ZM114.74 22.08C116.11 22.08 116.59 20.92 116.59 19.66C116.59 18.4 116.11 17.16 114.79 17.16C113.47 17.16 112.91 18.38 112.91 19.63C112.91 20.88 113.36 22.08 114.74 22.08Z" fill="white"/>
<path d="M127.27 23.46H125.26V22.39H125.22C124.68 23.25 123.76 23.67 122.86 23.67C120.61 23.67 120.04 22.41 120.04 20.5V15.77H122.16V20.11C122.16 21.37 122.53 22 123.52 22C124.67 22 125.16 21.36 125.16 19.8V15.77H127.28V23.46H127.27Z" fill="white"/>
<path d="M130.17 14.82H128.69L130.12 12.71H132.46L130.16 14.82H130.17ZM128.75 15.77H130.87V23.46H128.75V15.77Z" fill="white"/>
</svg>
